<?xml version="1.0" encoding="UTF-8" ?>
<!DOCTYPE svg PUBLIC "-//W3C//DTD SVG 1.1//EN" "http://www.w3.org/Graphics/SVG/1.1/DTD/svg11.dtd">
<svg width="200pt" height="200pt" viewBox="0 0 200 200" version="1.1" xmlns="http://www.w3.org/2000/svg">
<g id="#000000ff">
<path fill="#000000" opacity="1.00" d=" M 24.78 77.69 C 26.53 77.69 28.28 77.67 30.03 77.66 C 30.02 84.56 30.08 91.46 29.99 98.36 C 36.83 98.41 43.68 98.32 50.52 98.42 C 50.51 100.16 50.50 101.90 50.49 103.65 C 42.33 103.70 34.18 103.64 26.02 103.68 C 25.98 110.27 26.21 116.86 25.93 123.43 L 24.76 124.07 C 24.68 117.34 24.67 110.61 24.77 103.88 C 18.12 103.77 11.47 103.85 4.81 103.82 C 4.81 103.42 4.82 102.61 4.82 102.20 C 11.52 102.19 18.22 102.21 24.91 102.20 C 24.68 94.03 24.86 85.86 24.78 77.69 Z" />
<path fill="#000000" opacity="1.00" d=" M 68.28 80.23 C 74.99 75.99 84.34 77.13 90.46 81.96 C 89.78 83.32 89.11 84.68 88.46 86.05 C 84.08 82.23 77.42 80.63 72.06 83.22 C 68.93 84.78 68.04 89.87 71.28 91.81 C 76.70 94.83 83.67 94.25 88.55 98.39 C 93.11 102.38 90.98 110.40 85.71 112.71 C 78.51 116.04 69.55 114.77 63.18 110.16 C 63.87 108.87 64.56 107.58 65.24 106.30 C 69.98 109.87 76.43 111.29 82.13 109.46 C 85.57 108.45 87.36 103.19 83.92 101.10 C 78.59 98.20 71.86 98.71 66.96 94.90 C 62.30 91.19 63.41 83.25 68.28 80.23 Z" />
<path fill="#000000" opacity="1.00" d=" M 96.97 89.38 C 98.67 89.36 100.37 89.33 102.08 89.29 C 102.04 90.24 101.98 92.14 101.94 93.09 C 105.20 88.49 111.96 87.27 116.52 90.63 C 122.62 95.44 122.98 105.41 118.38 111.34 C 114.16 116.31 105.72 115.88 101.93 110.59 C 102.28 114.96 102.22 119.36 102.11 123.74 C 100.40 123.72 98.68 123.71 96.97 123.71 C 96.96 112.26 96.96 100.82 96.97 89.38 M 106.31 93.39 C 101.31 95.90 101.29 103.10 103.41 107.57 C 106.17 112.87 115.29 111.13 115.86 105.11 C 117.98 99.20 113.48 90.30 106.31 93.39 Z" />
<path fill="#000000" opacity="1.00" d=" M 132.14 89.96 C 136.72 87.65 143.23 88.36 146.29 92.80 C 148.43 95.57 148.57 99.24 148.73 102.59 C 142.70 102.69 136.67 102.60 130.64 102.65 C 130.59 111.21 141.38 112.51 146.72 107.79 C 147.23 109.09 147.81 110.37 148.20 111.72 C 143.33 114.48 137.22 115.68 132.00 113.18 C 123.13 109.02 123.41 94.13 132.14 89.96 M 130.55 99.56 C 135.10 99.79 139.65 99.62 144.20 99.67 C 144.04 96.26 141.96 92.24 138.01 92.51 C 133.82 92.01 131.21 95.93 130.55 99.56 Z" />
<path fill="#000000" opacity="1.00" d=" M 154.79 94.02 C 158.51 87.80 168.76 86.66 173.30 92.52 C 175.63 95.30 175.68 99.07 176.05 102.48 C 169.96 102.82 163.86 102.54 157.77 102.65 C 157.84 111.10 168.36 112.54 173.77 107.87 C 174.35 108.99 174.94 110.11 175.54 111.22 C 170.38 115.30 162.36 115.84 157.02 111.83 C 151.93 107.60 151.46 99.46 154.79 94.02 M 157.80 99.63 C 162.38 99.68 166.96 99.70 171.54 99.63 C 171.16 96.19 169.04 92.17 165.01 92.50 C 160.91 92.11 158.34 96.05 157.80 99.63 Z" />
<path fill="#000000" opacity="1.00" d=" M 181.26 89.33 C 183.02 89.36 184.78 89.36 186.54 89.50 C 186.40 90.39 186.13 92.17 185.99 93.06 C 188.69 90.25 192.25 88.52 196.22 88.67 C 196.31 90.12 196.40 91.57 196.50 93.03 C 192.81 93.17 187.80 93.74 186.76 98.08 C 186.13 103.37 186.66 108.74 186.50 114.06 C 184.76 114.05 183.03 114.05 181.30 114.05 C 181.31 105.81 181.37 97.57 181.26 89.33 Z" />
</g>
</svg>
