<?xml version="1.0" encoding="UTF-8" ?>
<!DOCTYPE svg PUBLIC "-//W3C//DTD SVG 1.1//EN" "http://www.w3.org/Graphics/SVG/1.1/DTD/svg11.dtd">
<svg width="200pt" height="200pt" viewBox="0 0 200 200" version="1.1" xmlns="http://www.w3.org/2000/svg">
<g id="#000000ff">
<path fill="#000000" opacity="1.00" d=" M 68.29 80.22 C 75.00 75.99 84.35 77.13 90.45 81.97 C 89.78 83.32 89.11 84.68 88.45 86.05 C 84.08 82.23 77.42 80.63 72.06 83.22 C 68.93 84.79 68.05 89.86 71.27 91.81 C 76.70 94.83 83.68 94.25 88.56 98.40 C 93.11 102.39 90.97 110.40 85.71 112.71 C 78.51 116.04 69.54 114.78 63.18 110.15 C 63.87 108.86 64.57 107.57 65.26 106.29 C 69.97 109.88 76.42 111.28 82.11 109.47 C 85.57 108.47 87.36 103.19 83.92 101.09 C 78.59 98.20 71.86 98.71 66.96 94.90 C 62.29 91.19 63.42 83.24 68.29 80.22 Z" />
<path fill="#000000" opacity="1.00" d=" M 96.98 89.38 C 98.67 89.36 100.37 89.33 102.07 89.29 C 102.04 90.24 101.98 92.14 101.95 93.09 C 105.20 88.48 111.97 87.28 116.53 90.63 C 122.62 95.45 122.98 105.41 118.37 111.35 C 114.15 116.31 105.72 115.87 101.93 110.59 C 102.28 114.97 102.22 119.36 102.11 123.74 C 100.40 123.72 98.69 123.71 96.98 123.71 C 96.96 112.26 96.95 100.82 96.98 89.38 M 106.32 93.39 C 101.31 95.90 101.29 103.11 103.42 107.58 C 106.19 112.87 115.29 111.12 115.86 105.10 C 117.98 99.20 113.48 90.30 106.32 93.39 Z" />
<path fill="#000000" opacity="1.00" d=" M 127.04 95.01 C 130.12 88.38 140.12 86.45 145.32 91.63 C 148.23 94.48 148.64 98.74 148.72 102.59 C 142.69 102.69 136.67 102.59 130.64 102.65 C 130.58 111.18 141.35 112.53 146.68 107.80 C 147.09 109.06 148.23 110.25 147.93 111.66 C 142.89 115.06 135.77 115.68 130.55 112.36 C 125.07 108.66 124.30 100.61 127.04 95.01 M 130.76 99.76 C 135.23 99.60 139.71 99.69 144.19 99.67 C 144.06 96.26 141.95 92.24 138.00 92.51 C 133.83 92.04 130.95 95.95 130.76 99.76 Z" />
<path fill="#000000" opacity="1.00" d=" M 157.87 90.80 C 162.67 87.46 170.51 87.96 173.78 93.20 C 175.69 95.89 175.65 99.30 176.08 102.43 C 169.99 102.89 163.88 102.50 157.78 102.65 C 157.83 111.10 168.37 112.55 173.77 107.87 C 174.35 108.98 174.94 110.10 175.53 111.21 C 169.44 116.19 158.37 115.94 154.29 108.54 C 151.35 102.80 152.36 94.65 157.87 90.80 M 157.80 99.63 C 162.38 99.68 166.95 99.70 171.53 99.63 C 171.17 96.18 169.03 92.17 165.00 92.50 C 160.91 92.12 158.33 96.05 157.80 99.63 Z" />
<path fill="#000000" opacity="1.00" d=" M 181.26 89.34 C 183.01 89.34 184.77 89.36 186.53 89.50 C 186.40 90.40 186.16 92.19 186.03 93.08 C 188.68 90.21 192.27 88.53 196.22 88.67 C 196.31 90.12 196.40 91.58 196.50 93.03 C 192.82 93.17 187.82 93.73 186.77 98.05 C 186.11 103.35 186.67 108.73 186.49 114.06 C 184.76 114.05 183.03 114.05 181.30 114.05 C 181.30 105.81 181.37 97.58 181.26 89.34 Z" />
</g>
</svg>
